<?xml version="1.0" encoding="UTF-8"?>
<svg width="50px" height="50px" viewBox="0 0 50 50" version="1.1" xmlns="http://www.w3.org/2000/svg" xmlns:xlink="http://www.w3.org/1999/xlink">
    <!-- Generator: Sketch 56.3 (81716) - https://sketch.com -->
    <title>Tobacco Road</title>
    <desc>Logo</desc>
    <defs>
        <linearGradient x1="64.04433%" y1="50%" x2="7.72716293%" y2="50%" id="linearGradient-1">
            <stop stop-color="#3D7FCF" offset="0%"></stop>
            <stop stop-color="#00D4E8" offset="100%"></stop>
        </linearGradient>
        <linearGradient x1="9.07278423%" y1="50%" x2="90.2920965%" y2="50%" id="linearGradient-2">
            <stop stop-color="#9533BF" offset="0%"></stop>
            <stop stop-color="#B461E2" offset="100%"></stop>
        </linearGradient>
    </defs>
    <g id="Artboard" stroke="none" stroke-width="1" fill="none" fill-rule="evenodd">
        <g id="Z" transform="translate(25.000000, 25.000000) rotate(45.000000) translate(-25.000000, -25.000000) translate(5.000000, 5.000000)">
            <rect id="Rectangle" fill="url(#linearGradient-1)" x="2.56559767" y="2.55813953" width="34.9854227" height="11.627907" rx="5.81395349"></rect>
            <rect id="Rectangle" fill="url(#linearGradient-1)" transform="translate(19.941691, 31.627907) scale(-1, 1) translate(-19.941691, -31.627907) " x="2.44897959" y="25.8139535" width="34.9854227" height="11.627907" rx="5.81395349"></rect>
            <path d="M3.39760323,14.1534172 L36.5854465,14.2017255 C39.8038233,14.2064102 42.4116656,16.8142525 42.4163503,20.0326293 C42.4210174,23.2389201 39.8255886,25.8419157 36.6192978,25.8465828 C36.6136641,25.846591 36.6080304,25.846591 36.6023968,25.8465828 L3.41455353,25.7982745 C0.196176744,25.7935898 -2.41166558,23.1857475 -2.41635026,19.9673707 C-2.42101735,16.7610799 0.174411442,14.1580843 3.3807022,14.1534172 C3.38633587,14.153409 3.39196955,14.153409 3.39760323,14.1534172 Z" id="Rectangle" fill="url(#linearGradient-2)" transform="translate(20.000000, 20.000000) rotate(135.000000) translate(-20.000000, -20.000000) "></path>
        </g>
    </g>
</svg>